<?xml version="1.0" standalone="no"?><svg xmlns:xlink="http://www.w3.org/1999/xlink" xmlns="http://www.w3.org/2000/svg" viewBox="0 0 1000 583.3358463255029" preserveAspectRatio="xMaxYMax slice"><g transform="scale(1.206236241367872)"><rect x="0" y="0" width="829.0285714285715" height="483.6" fill="#1e1e1e"/><g transform="translate(27.63,27.63) scale(0.6910000000000001) rotate(0)"><path d="M10 5L5 0L0 5L5 10L0 15L5 20L10 15L15 20L20 15L15 10L20 5L15 0L10 5Z" fill="#848994"/></g><g transform="translate(165.81,27.63) scale(0.6910000000000001) rotate(0)"><path d="M10 5L5 0L0 5L5 10L0 15L5 20L10 15L15 20L20 15L15 10L20 5L15 0L10 5Z" fill="#dbe3f9"/></g><g transform="translate(234.89,27.63) scale(0.6910000000000001) rotate(0)"><path d="M10 5L5 0L0 5L5 10L0 15L5 20L10 15L15 20L20 15L15 10L20 5L15 0L10 5Z" fill="#b0b7c8"/></g><g transform="translate(303.98,27.63) scale(0.6910000000000001) rotate(0)"><path d="M10 5L5 0L0 5L5 10L0 15L5 20L10 15L15 20L20 15L15 10L20 5L15 0L10 5Z" fill="#3e4043"/></g><rect x="649.4057142857143" y="27.634285714285717" width="13.817142857142855" height="13.817142857142855" fill="#1e1e1e"/><g transform="translate(649.41,27.63) scale(0.34550000000000003) rotate(0)"><path d="M10 5L5 0L0 5L5 10L0 15L5 20L10 15L15 20L20 15L15 10L20 5L15 0L10 5Z" fill="#d0d8ed"/></g><g transform="translate(656.31,27.63) scale(0.34550000000000003) rotate(0)"><path d="M10 5L5 0L0 5L5 10L0 15L5 20L10 15L15 20L20 15L15 10L20 5L15 0L10 5Z" fill="#6e717a"/></g><g transform="translate(718.49,27.63) scale(0.6910000000000001) rotate(0)"><path d="M10 5L5 0L0 5L5 10L0 15L5 20L10 15L15 20L20 15L15 10L20 5L15 0L10 5Z" fill="#6e727b"/></g><g transform="translate(787.58,27.63) scale(0.6910000000000001) rotate(0)"><path d="M10 5L5 0L0 5L5 10L0 15L5 20L10 15L15 20L20 15L15 10L20 5L15 0L10 5Z" fill="#bfc6d8"/></g><rect x="229.2066612244898" y="91.03523265306123" width="25.18667755102041" height="25.18667755102041" fill="#1e1e1e"/><g transform="translate(229.21,91.04) scale(0.6295) rotate(0)"><path d="M10 5L5 0L0 5L5 10L0 15L5 20L10 15L15 20L20 15L15 10L20 5L15 0L10 5Z" fill="#b0b7c7"/></g><g transform="translate(229.21,103.63) scale(0.6295) rotate(0)"><path d="M10 5L5 0L0 5L5 10L0 15L5 20L10 15L15 20L20 15L15 10L20 5L15 0L10 5Z" fill="#5c5f66"/></g><g transform="translate(241.8,103.63) scale(0.6295) rotate(0)"><path d="M10 5L5 0L0 5L5 10L0 15L5 20L10 15L15 20L20 15L15 10L20 5L15 0L10 5Z" fill="#6e717a"/></g><g transform="translate(296.4,89.14) scale(1.449) rotate(0)"><path d="M10 5L5 0L0 5L5 10L0 15L5 20L10 15L15 20L20 15L15 10L20 5L15 0L10 5Z" fill="#7d828d"/></g><rect x="363.5882448979592" y="87.24538775510204" width="32.76636734693877" height="32.76636734693877" fill="#1e1e1e"/><g transform="translate(363.59,87.25) scale(0.819) rotate(0)"><path d="M10 5L5 0L0 5L5 10L0 15L5 20L10 15L15 20L20 15L15 10L20 5L15 0L10 5Z" fill="#9da3b1"/></g><g transform="translate(363.59,103.63) scale(0.819) rotate(0)"><path d="M10 5L5 0L0 5L5 10L0 15L5 20L10 15L15 20L20 15L15 10L20 5L15 0L10 5Z" fill="#ced6ea"/></g><g transform="translate(379.97,103.63) scale(0.819) rotate(0)"><path d="M10 5L5 0L0 5L5 10L0 15L5 20L10 15L15 20L20 15L15 10L20 5L15 0L10 5Z" fill="#bbc2d4"/></g><g transform="translate(432.67,87.25) scale(1.6385) rotate(0)"><path d="M10 5L5 0L0 5L5 10L0 15L5 20L10 15L15 20L20 15L15 10L20 5L15 0L10 5Z" fill="#202020"/></g><g transform="translate(501.76,87.25) scale(1.6385) rotate(0)"><path d="M10 5L5 0L0 5L5 10L0 15L5 20L10 15L15 20L20 15L15 10L20 5L15 0L10 5Z" fill="#4d4f54"/></g><g transform="translate(572.74,89.14) scale(1.449) rotate(0)"><path d="M10 5L5 0L0 5L5 10L0 15L5 20L10 15L15 20L20 15L15 10L20 5L15 0L10 5Z" fill="#53555b"/></g><g transform="translate(643.72,91.04) scale(1.2595) rotate(0)"><path d="M10 5L5 0L0 5L5 10L0 15L5 20L10 15L15 20L20 15L15 10L20 5L15 0L10 5Z" fill="#9fa5b4"/></g><g transform="translate(27.63,165.81) scale(0.6910000000000001) rotate(0)"><path d="M10 5L5 0L0 5L5 10L0 15L5 20L10 15L15 20L20 15L15 10L20 5L15 0L10 5Z" fill="#6d717a"/></g><g transform="translate(158.23,158.23) scale(1.449) rotate(0)"><path d="M10 5L5 0L0 5L5 10L0 15L5 20L10 15L15 20L20 15L15 10L20 5L15 0L10 5Z" fill="#898e9a"/></g><rect x="223.52189387755104" y="154.43617959183675" width="36.55621224489796" height="36.55621224489796" fill="#1e1e1e"/><g transform="translate(223.52,154.44) scale(0.914) rotate(0)"><path d="M10 5L5 0L0 5L5 10L0 15L5 20L10 15L15 20L20 15L15 10L20 5L15 0L10 5Z" fill="#646870"/></g><g transform="translate(241.8,172.71) scale(0.914) rotate(0)"><path d="M10 5L5 0L0 5L5 10L0 15L5 20L10 15L15 20L20 15L15 10L20 5L15 0L10 5Z" fill="#ccd4e8"/></g><g transform="translate(288.82,150.65) scale(2.207) rotate(0)"><path d="M10 5L5 0L0 5L5 10L0 15L5 20L10 15L15 20L20 15L15 10L20 5L15 0L10 5Z" fill="#cfd8ec"/></g><rect x="354.11363265306125" y="146.85648979591838" width="51.71559183673469" height="51.71559183673469" fill="#1e1e1e"/><g transform="translate(354.11,146.86) scale(1.293) rotate(0)"><path d="M10 5L5 0L0 5L5 10L0 15L5 20L10 15L15 20L20 15L15 10L20 5L15 0L10 5Z" fill="#838793"/></g><g transform="translate(379.97,146.86) scale(1.293) rotate(0)"><path d="M10 5L5 0L0 5L5 10L0 15L5 20L10 15L15 20L20 15L15 10L20 5L15 0L10 5Z" fill="#505258"/></g><g transform="translate(354.11,172.71) scale(1.293) rotate(0)"><path d="M10 5L5 0L0 5L5 10L0 15L5 20L10 15L15 20L20 15L15 10L20 5L15 0L10 5Z" fill="#2e2f30"/></g><g transform="translate(379.97,172.71) scale(1.293) rotate(0)"><path d="M10 5L5 0L0 5L5 10L0 15L5 20L10 15L15 20L20 15L15 10L20 5L15 0L10 5Z" fill="#646870"/></g><g transform="translate(423.2,146.86) scale(2.586) rotate(0)"><path d="M10 5L5 0L0 5L5 10L0 15L5 20L10 15L15 20L20 15L15 10L20 5L15 0L10 5Z" fill="#222223"/></g><g transform="translate(492.29,146.86) scale(2.586) rotate(0)"><path d="M10 5L5 0L0 5L5 10L0 15L5 20L10 15L15 20L20 15L15 10L20 5L15 0L10 5Z" fill="#979dab"/></g><g transform="translate(638.04,154.44) scale(1.828) rotate(0)"><path d="M10 5L5 0L0 5L5 10L0 15L5 20L10 15L15 20L20 15L15 10L20 5L15 0L10 5Z" fill="#949aa7"/></g><g transform="translate(710.91,158.23) scale(1.449) rotate(0)"><path d="M10 5L5 0L0 5L5 10L0 15L5 20L10 15L15 20L20 15L15 10L20 5L15 0L10 5Z" fill="#959ba8"/></g><g transform="translate(27.63,234.89) scale(0.6910000000000001) rotate(0)"><path d="M10 5L5 0L0 5L5 10L0 15L5 20L10 15L15 20L20 15L15 10L20 5L15 0L10 5Z" fill="#a6adbc"/></g><g transform="translate(91.19,229.36) scale(1.2435) rotate(0)"><path d="M10 5L5 0L0 5L5 10L0 15L5 20L10 15L15 20L20 15L15 10L20 5L15 0L10 5Z" fill="#45474b"/></g><g transform="translate(154.75,223.84) scale(1.796) rotate(0)"><path d="M10 5L5 0L0 5L5 10L0 15L5 20L10 15L15 20L20 15L15 10L20 5L15 0L10 5Z" fill="#a8aebe"/></g><g transform="translate(345.43,207.26) scale(3.4545000000000003) rotate(0)"><path d="M10 5L5 0L0 5L5 10L0 15L5 20L10 15L15 20L20 15L15 10L20 5L15 0L10 5Z" fill="#2a2b2c"/></g><g transform="translate(414.51,207.26) scale(3.4545000000000003) rotate(0)"><path d="M10 5L5 0L0 5L5 10L0 15L5 20L10 15L15 20L20 15L15 10L20 5L15 0L10 5Z" fill="#dce5fa"/></g><rect x="558.2125714285714" y="212.78400000000002" width="58.032000000000004" height="58.032000000000004" fill="#1e1e1e"/><g transform="translate(558.21,212.78) scale(1.451) rotate(0)"><path d="M10 5L5 0L0 5L5 10L0 15L5 20L10 15L15 20L20 15L15 10L20 5L15 0L10 5Z" fill="#bfc7d9"/></g><g transform="translate(558.21,241.8) scale(1.451) rotate(0)"><path d="M10 5L5 0L0 5L5 10L0 15L5 20L10 15L15 20L20 15L15 10L20 5L15 0L10 5Z" fill="#bcc3d5"/></g><g transform="translate(587.23,241.8) scale(1.451) rotate(0)"><path d="M10 5L5 0L0 5L5 10L0 15L5 20L10 15L15 20L20 15L15 10L20 5L15 0L10 5Z" fill="#ccd4e8"/></g><g transform="translate(632.83,218.31) scale(2.3489999999999998) rotate(0)"><path d="M10 5L5 0L0 5L5 10L0 15L5 20L10 15L15 20L20 15L15 10L20 5L15 0L10 5Z" fill="#d7e0f5"/></g><g transform="translate(707.44,223.84) scale(1.796) rotate(0)"><path d="M10 5L5 0L0 5L5 10L0 15L5 20L10 15L15 20L20 15L15 10L20 5L15 0L10 5Z" fill="#cdd5e9"/></g><g transform="translate(782.05,229.36) scale(1.2435) rotate(0)"><path d="M10 5L5 0L0 5L5 10L0 15L5 20L10 15L15 20L20 15L15 10L20 5L15 0L10 5Z" fill="#202020"/></g><g transform="translate(27.63,303.98) scale(0.6910000000000001) rotate(0)"><path d="M10 5L5 0L0 5L5 10L0 15L5 20L10 15L15 20L20 15L15 10L20 5L15 0L10 5Z" fill="#979daa"/></g><rect x="91.19314285714286" y="298.4502857142857" width="24.87085714285714" height="24.87085714285714" fill="#1e1e1e"/><g transform="translate(103.63,298.45) scale(0.622) rotate(0)"><path d="M10 5L5 0L0 5L5 10L0 15L5 20L10 15L15 20L20 15L15 10L20 5L15 0L10 5Z" fill="#d8e1f6"/></g><g transform="translate(103.63,310.89) scale(0.622) rotate(0)"><path d="M10 5L5 0L0 5L5 10L0 15L5 20L10 15L15 20L20 15L15 10L20 5L15 0L10 5Z" fill="#71747e"/></g><g transform="translate(154.75,292.92) scale(1.796) rotate(0)"><path d="M10 5L5 0L0 5L5 10L0 15L5 20L10 15L15 20L20 15L15 10L20 5L15 0L10 5Z" fill="#848994"/></g><g transform="translate(218.31,287.4) scale(2.3489999999999998) rotate(0)"><path d="M10 5L5 0L0 5L5 10L0 15L5 20L10 15L15 20L20 15L15 10L20 5L15 0L10 5Z" fill="#9ba1af"/></g><g transform="translate(345.43,276.34) scale(3.4545000000000003) rotate(0)"><path d="M10 5L5 0L0 5L5 10L0 15L5 20L10 15L15 20L20 15L15 10L20 5L15 0L10 5Z" fill="#62656c"/></g><g transform="translate(414.51,276.34) scale(3.4545000000000003) rotate(0)"><path d="M10 5L5 0L0 5L5 10L0 15L5 20L10 15L15 20L20 15L15 10L20 5L15 0L10 5Z" fill="#8b909d"/></g><g transform="translate(483.6,276.34) scale(3.4545000000000003) rotate(0)"><path d="M10 5L5 0L0 5L5 10L0 15L5 20L10 15L15 20L20 15L15 10L20 5L15 0L10 5Z" fill="#53565c"/></g><rect x="632.8251428571429" y="287.39657142857146" width="46.97828571428572" height="46.97828571428572" fill="#1e1e1e"/><g transform="translate(632.83,287.4) scale(1.1744999999999999) rotate(0)"><path d="M10 5L5 0L0 5L5 10L0 15L5 20L10 15L15 20L20 15L15 10L20 5L15 0L10 5Z" fill="#585b62"/></g><g transform="translate(656.31,310.89) scale(1.1744999999999999) rotate(0)"><path d="M10 5L5 0L0 5L5 10L0 15L5 20L10 15L15 20L20 15L15 10L20 5L15 0L10 5Z" fill="#959ba8"/></g><rect x="707.4377142857143" y="292.9234285714286" width="35.92457142857143" height="35.92457142857143" fill="#1e1e1e"/><g transform="translate(707.44,292.92) scale(0.898) rotate(0)"><path d="M10 5L5 0L0 5L5 10L0 15L5 20L10 15L15 20L20 15L15 10L20 5L15 0L10 5Z" fill="#62656d"/></g><g transform="translate(725.4,292.92) scale(0.898) rotate(0)"><path d="M10 5L5 0L0 5L5 10L0 15L5 20L10 15L15 20L20 15L15 10L20 5L15 0L10 5Z" fill="#9da3b1"/></g><g transform="translate(725.4,310.89) scale(0.898) rotate(0)"><path d="M10 5L5 0L0 5L5 10L0 15L5 20L10 15L15 20L20 15L15 10L20 5L15 0L10 5Z" fill="#d1d9ed"/></g><rect x="782.0502857142858" y="298.4502857142857" width="24.87085714285714" height="24.87085714285714" fill="#1e1e1e"/><g transform="translate(782.05,310.89) scale(0.622) rotate(0)"><path d="M10 5L5 0L0 5L5 10L0 15L5 20L10 15L15 20L20 15L15 10L20 5L15 0L10 5Z" fill="#29292a"/></g><g transform="translate(794.49,310.89) scale(0.622) rotate(0)"><path d="M10 5L5 0L0 5L5 10L0 15L5 20L10 15L15 20L20 15L15 10L20 5L15 0L10 5Z" fill="#a9b0bf"/></g><rect x="92.93015510204083" y="369.273012244898" width="21.396832653061217" height="21.396832653061217" fill="#1e1e1e"/><g transform="translate(92.93,369.27) scale(0.5349999999999999) rotate(0)"><path d="M10 5L5 0L0 5L5 10L0 15L5 20L10 15L15 20L20 15L15 10L20 5L15 0L10 5Z" fill="#7b7f8a"/></g><g transform="translate(92.93,379.97) scale(0.5349999999999999) rotate(0)"><path d="M10 5L5 0L0 5L5 10L0 15L5 20L10 15L15 20L20 15L15 10L20 5L15 0L10 5Z" fill="#dae3f8"/></g><g transform="translate(103.63,379.97) scale(0.5349999999999999) rotate(0)"><path d="M10 5L5 0L0 5L5 10L0 15L5 20L10 15L15 20L20 15L15 10L20 5L15 0L10 5Z" fill="#c1c8db"/></g><g transform="translate(158.23,365.48) scale(1.449) rotate(0)"><path d="M10 5L5 0L0 5L5 10L0 15L5 20L10 15L15 20L20 15L15 10L20 5L15 0L10 5Z" fill="#4f5157"/></g><g transform="translate(288.82,357.9) scale(2.207) rotate(0)"><path d="M10 5L5 0L0 5L5 10L0 15L5 20L10 15L15 20L20 15L15 10L20 5L15 0L10 5Z" fill="#313234"/></g><rect x="354.11363265306125" y="354.11363265306125" width="51.71559183673469" height="51.71559183673469" fill="#1e1e1e"/><g transform="translate(354.11,354.11) scale(1.293) rotate(0)"><path d="M10 5L5 0L0 5L5 10L0 15L5 20L10 15L15 20L20 15L15 10L20 5L15 0L10 5Z" fill="#44464a"/></g><g transform="translate(379.97,354.11) scale(1.293) rotate(0)"><path d="M10 5L5 0L0 5L5 10L0 15L5 20L10 15L15 20L20 15L15 10L20 5L15 0L10 5Z" fill="#bfc6d8"/></g><g transform="translate(354.11,379.97) scale(1.293) rotate(0)"><path d="M10 5L5 0L0 5L5 10L0 15L5 20L10 15L15 20L20 15L15 10L20 5L15 0L10 5Z" fill="#767a84"/></g><g transform="translate(379.97,379.97) scale(1.293) rotate(0)"><path d="M10 5L5 0L0 5L5 10L0 15L5 20L10 15L15 20L20 15L15 10L20 5L15 0L10 5Z" fill="#9da2b1"/></g><g transform="translate(492.29,354.11) scale(2.586) rotate(0)"><path d="M10 5L5 0L0 5L5 10L0 15L5 20L10 15L15 20L20 15L15 10L20 5L15 0L10 5Z" fill="#7d818c"/></g><g transform="translate(565.16,357.9) scale(2.207) rotate(0)"><path d="M10 5L5 0L0 5L5 10L0 15L5 20L10 15L15 20L20 15L15 10L20 5L15 0L10 5Z" fill="#d4ddf1"/></g><g transform="translate(638.04,361.69) scale(1.828) rotate(0)"><path d="M10 5L5 0L0 5L5 10L0 15L5 20L10 15L15 20L20 15L15 10L20 5L15 0L10 5Z" fill="#9ea4b2"/></g><g transform="translate(710.91,365.48) scale(1.449) rotate(0)"><path d="M10 5L5 0L0 5L5 10L0 15L5 20L10 15L15 20L20 15L15 10L20 5L15 0L10 5Z" fill="#60636b"/></g><g transform="translate(783.79,369.27) scale(1.0699999999999998) rotate(0)"><path d="M10 5L5 0L0 5L5 10L0 15L5 20L10 15L15 20L20 15L15 10L20 5L15 0L10 5Z" fill="#c7cee1"/></g><g transform="translate(27.63,442.15) scale(0.6910000000000001) rotate(0)"><path d="M10 5L5 0L0 5L5 10L0 15L5 20L10 15L15 20L20 15L15 10L20 5L15 0L10 5Z" fill="#757983"/></g><g transform="translate(94.83,440.25) scale(0.8805) rotate(0)"><path d="M10 5L5 0L0 5L5 10L0 15L5 20L10 15L15 20L20 15L15 10L20 5L15 0L10 5Z" fill="#333336"/></g><g transform="translate(162.02,438.36) scale(1.0699999999999998) rotate(0)"><path d="M10 5L5 0L0 5L5 10L0 15L5 20L10 15L15 20L20 15L15 10L20 5L15 0L10 5Z" fill="#898e9b"/></g><rect x="296.3974530612245" y="434.5688816326531" width="28.976522448979587" height="28.976522448979587" fill="#1e1e1e"/><g transform="translate(310.89,434.57) scale(0.7245) rotate(0)"><path d="M10 5L5 0L0 5L5 10L0 15L5 20L10 15L15 20L20 15L15 10L20 5L15 0L10 5Z" fill="#8d929f"/></g><g transform="translate(296.4,449.06) scale(0.7245) rotate(0)"><path d="M10 5L5 0L0 5L5 10L0 15L5 20L10 15L15 20L20 15L15 10L20 5L15 0L10 5Z" fill="#aeb5c5"/></g><g transform="translate(310.89,449.06) scale(0.7245) rotate(0)"><path d="M10 5L5 0L0 5L5 10L0 15L5 20L10 15L15 20L20 15L15 10L20 5L15 0L10 5Z" fill="#d0d8ec"/></g><g transform="translate(501.76,432.67) scale(1.6385) rotate(0)"><path d="M10 5L5 0L0 5L5 10L0 15L5 20L10 15L15 20L20 15L15 10L20 5L15 0L10 5Z" fill="#c9d1e4"/></g><g transform="translate(572.74,434.57) scale(1.449) rotate(0)"><path d="M10 5L5 0L0 5L5 10L0 15L5 20L10 15L15 20L20 15L15 10L20 5L15 0L10 5Z" fill="#4f5157"/></g><g transform="translate(643.72,436.46) scale(1.2595) rotate(0)"><path d="M10 5L5 0L0 5L5 10L0 15L5 20L10 15L15 20L20 15L15 10L20 5L15 0L10 5Z" fill="#b2b9ca"/></g><g transform="translate(785.68,440.25) scale(0.8805) rotate(0)"><path d="M10 5L5 0L0 5L5 10L0 15L5 20L10 15L15 20L20 15L15 10L20 5L15 0L10 5Z" fill="#9095a2"/></g></g></svg>